<mxfile host="app.diagrams.net" modified="2022-05-25T23:14:10.252Z" agent="5.0 (Windows NT 10.0; Win64; x64) AppleWebKit/537.36 (KHTML, like Gecko) Chrome/101.0.0.0 Safari/537.36" etag="UzaeDKLECeRHGG06Nnpa" version="18.1.2" type="github">
  <diagram id="V12oF-ini3Ybn4VEy4rh" name="Page-1">
    <mxGraphModel dx="551" dy="744" grid="1" gridSize="10" guides="1" tooltips="1" connect="1" arrows="1" fold="1" page="1" pageScale="1" pageWidth="827" pageHeight="1169" math="0" shadow="0">
      <root>
        <mxCell id="0" />
        <mxCell id="1" parent="0" />
        <mxCell id="LkysZAVk_OMB9fxnc-Kz-1" value="Actor" style="shape=umlActor;verticalLabelPosition=bottom;verticalAlign=top;html=1;" vertex="1" parent="1">
          <mxGeometry x="270" y="340" width="70" height="120" as="geometry" />
        </mxCell>
        <mxCell id="LkysZAVk_OMB9fxnc-Kz-2" value="회원 관리" style="ellipse;whiteSpace=wrap;html=1;" vertex="1" parent="1">
          <mxGeometry x="480" y="180" width="120" height="80" as="geometry" />
        </mxCell>
        <mxCell id="LkysZAVk_OMB9fxnc-Kz-3" value="도서 관리" style="ellipse;whiteSpace=wrap;html=1;" vertex="1" parent="1">
          <mxGeometry x="480" y="290" width="120" height="80" as="geometry" />
        </mxCell>
        <mxCell id="LkysZAVk_OMB9fxnc-Kz-4" value="판매 현황" style="ellipse;whiteSpace=wrap;html=1;" vertex="1" parent="1">
          <mxGeometry x="480" y="400" width="120" height="80" as="geometry" />
        </mxCell>
        <mxCell id="LkysZAVk_OMB9fxnc-Kz-5" value="구매" style="ellipse;whiteSpace=wrap;html=1;" vertex="1" parent="1">
          <mxGeometry x="480" y="505" width="120" height="80" as="geometry" />
        </mxCell>
        <mxCell id="LkysZAVk_OMB9fxnc-Kz-6" value="" style="endArrow=classic;html=1;rounded=0;" edge="1" parent="1" source="LkysZAVk_OMB9fxnc-Kz-1" target="LkysZAVk_OMB9fxnc-Kz-2">
          <mxGeometry width="50" height="50" relative="1" as="geometry">
            <mxPoint x="460" y="410" as="sourcePoint" />
            <mxPoint x="510" y="360" as="targetPoint" />
          </mxGeometry>
        </mxCell>
        <mxCell id="LkysZAVk_OMB9fxnc-Kz-7" value="" style="endArrow=classic;html=1;rounded=0;" edge="1" parent="1" source="LkysZAVk_OMB9fxnc-Kz-1" target="LkysZAVk_OMB9fxnc-Kz-3">
          <mxGeometry width="50" height="50" relative="1" as="geometry">
            <mxPoint x="460" y="410" as="sourcePoint" />
            <mxPoint x="510" y="360" as="targetPoint" />
          </mxGeometry>
        </mxCell>
        <mxCell id="LkysZAVk_OMB9fxnc-Kz-8" value="" style="endArrow=classic;html=1;rounded=0;" edge="1" parent="1" source="LkysZAVk_OMB9fxnc-Kz-1" target="LkysZAVk_OMB9fxnc-Kz-4">
          <mxGeometry width="50" height="50" relative="1" as="geometry">
            <mxPoint x="460" y="410" as="sourcePoint" />
            <mxPoint x="510" y="360" as="targetPoint" />
          </mxGeometry>
        </mxCell>
        <mxCell id="LkysZAVk_OMB9fxnc-Kz-9" value="" style="endArrow=classic;html=1;rounded=0;" edge="1" parent="1" source="LkysZAVk_OMB9fxnc-Kz-1" target="LkysZAVk_OMB9fxnc-Kz-5">
          <mxGeometry width="50" height="50" relative="1" as="geometry">
            <mxPoint x="460" y="410" as="sourcePoint" />
            <mxPoint x="510" y="360" as="targetPoint" />
          </mxGeometry>
        </mxCell>
      </root>
    </mxGraphModel>
  </diagram>
</mxfile>
